<?xml version="1.0" encoding="UTF-8"?>
<svg version="1.1" xmlns="http://www.w3.org/2000/svg" width="500" height="500">
<path d="M0 0 C165 0 330 0 500 0 C500 165 500 330 500 500 C335 500 170 500 0 500 C0 335 0 170 0 0 Z " fill="#FEFEFE" transform="translate(0,0)"/>
<path d="M0 0 C9.60604164 -0.06975571 19.211995 -0.12294041 28.8182354 -0.15543652 C33.27963128 -0.17103929 37.74085285 -0.19217814 42.20214844 -0.22631836 C46.51397522 -0.25910527 50.82563516 -0.27689346 55.13757706 -0.28463173 C56.77607979 -0.29014075 58.41457422 -0.30089785 60.05300522 -0.31719017 C74.93395002 -0.45917194 88.17076679 1.74188736 99.75 12 C108.71867449 21.6402419 111.32446221 33.35928881 111.1484375 46.02734375 C110.68222836 58.50457244 105.85989839 71.05424988 97 80 C88.90530784 86.78525666 81.59820569 90.56776102 71 90 C75.7090478 95.45640053 80.5437329 100.767817 85.5 106 C89.87784182 110.62155673 94.16522293 115.29545808 98.33886719 120.10253906 C100.79710081 122.91050375 103.33207062 125.64389555 105.875 128.375 C109.40565375 132.18188 112.91581342 136.00277621 116.375 139.875 C154.17931038 184.80133613 154.17931038 184.80133613 206.71826172 204.74755859 C208.47861528 204.83630541 210.2392821 204.91880184 212 205 C212 205.99 212 206.98 212 208 C205.93083084 209.76404917 200.49372162 210.32045721 194.1875 210.25 C193.30384766 210.24250732 192.42019531 210.23501465 191.50976562 210.22729492 C163.11603973 209.75981176 142.86011607 192.54934284 123.9375 173.140625 C120.39355472 169.41764622 117.17702156 165.45154544 113.984375 161.42578125 C111.70587238 158.64044636 109.24632381 156.15597328 106.6640625 153.65625 C104.3138242 151.31704569 102.17990951 148.8111563 100.015625 146.30078125 C97.55519731 143.4922698 95.03025008 140.74538121 92.5 138 C89.46095466 134.69986653 86.43843541 131.3905024 83.5 128 C80.13677362 124.12182987 76.66664329 120.34472189 73.19189453 116.56689453 C70.23564718 113.35155806 67.29583423 110.12264086 64.375 106.875 C63.65441406 106.07449219 62.93382812 105.27398437 62.19140625 104.44921875 C60.67106366 102.75001233 59.15856869 101.04376442 57.65234375 99.33203125 C50.90159997 91.21135074 50.90159997 91.21135074 42 86 C42 85.01 42 84.02 42 83 C43.24394531 82.96261719 44.48789063 82.92523438 45.76953125 82.88671875 C60.30234299 82.35344477 74.90358655 81.24654302 85.4609375 70.0625 C92.9039629 60.08809032 92.95962019 46.88412472 92 35 C90.24856395 25.8625079 86.18993252 19.18993252 79.6875 12.6875 C70.63882317 7.00577269 60.72908602 7.46066473 50.4375 7.3125 C48.8404677 7.27927239 47.24346123 7.24477784 45.64648438 7.20898438 C41.7643043 7.12235555 37.88297033 7.06176969 34 7 C34 12.94 34 18.88 34 25 C44.89 25 55.78 25 67 25 C67 25.66 67 26.32 67 27 C66.27554688 27.09796875 65.55109375 27.1959375 64.8046875 27.296875 C54.92533376 28.82488171 49.67002382 32.85033238 43 40 C41.97700806 41.01820328 41.97700806 41.01820328 40.93334961 42.05697632 C34.39162163 49.18278715 33.819976 55.03232511 33.9375 64.4765625 C33.93209602 65.85559173 33.92431947 67.23461348 33.91430664 68.61361694 C33.90258805 71.4869732 33.91940081 74.35832442 33.95703125 77.23144531 C34.00270988 80.89542234 33.97628131 84.55472322 33.92845154 88.21853065 C33.89940467 91.06033977 33.90880195 93.90105707 33.92947388 96.74290085 C33.93732151 98.74355912 33.91324498 100.74426176 33.88842773 102.74478149 C34.01789563 109.0516362 34.26739853 113.05304372 38.84765625 117.63818359 C40.22458639 118.76760521 41.60853071 119.88854014 43 121 C44.19401495 122.30889923 45.36488508 123.63970481 46.5 125 C48.89676588 127.78896393 51.37959391 130.41990785 54 133 C56.55869259 135.51955389 58.98170611 138.08118782 61.3125 140.8125 C68.72986671 149.37618702 76.40287186 156.92334949 86 163 C86.77730469 163.52207031 87.55460938 164.04414063 88.35546875 164.58203125 C98.71592174 171.25801646 109.6836027 174.75186745 122 175 C121.67 175.99 121.34 176.98 121 178 C103.64360508 181.21805498 87.70736983 177.69817233 73 168 C69.52790117 165.48259501 66.24880902 162.79801734 63 160 C62.22269531 159.34515625 61.44539063 158.6903125 60.64453125 158.015625 C53.9869754 152.23777881 48.05552161 145.83940122 42.1015625 139.35546875 C39.79253064 136.84114322 37.44144873 134.38732795 35 132 C34.9708456 135.39581516 34.95314932 138.79159786 34.9375 142.1875 C34.92493164 143.62706055 34.92493164 143.62706055 34.91210938 145.09570312 C34.90727539 146.49272461 34.90727539 146.49272461 34.90234375 147.91796875 C34.89448853 149.19837036 34.89448853 149.19837036 34.88647461 150.50463867 C34.9569752 153.44071947 34.9569752 153.44071947 36 158 C40.95 158 45.9 158 51 158 C51.95662762 164.69639333 51.79096503 168.88131475 51 176 C18.33 176 -14.34 176 -48 176 C-48 170.06 -48 164.12 -48 158 C-26.88 157.67 -5.76 157.34 16 157 C18.14809534 150.55571397 17.63392465 143.2853628 17.78955078 136.54345703 C17.84601961 134.6148046 17.92761609 132.68670629 18.03564453 130.76025391 C18.95050123 118.63324041 18.95050123 118.63324041 14.18896484 107.90942383 C11.52290356 105.0687412 8.62410818 102.61181773 5.53915405 100.23994446 C3.39966443 98.5163689 1.64707149 96.52923148 -0.125 94.4375 C-0.62257812 93.85871094 -1.12015625 93.27992188 -1.6328125 92.68359375 C-3.14117787 90.82614954 -4.57728546 88.92361108 -6 87 C-4.41761932 84.97841523 -2.834084 82.9577496 -1.25 80.9375 C-0.61384766 80.12442383 -0.61384766 80.12442383 0.03515625 79.29492188 C0.49277344 78.71162109 0.95039063 78.12832031 1.421875 77.52734375 C1.9370166 76.84462402 2.4521582 76.1619043 2.98291016 75.45849609 C4.59917185 73.48854266 6.22283862 71.76647578 8.02880859 69.98291016 C16.84694386 60.84602237 18.56026443 53.22690427 18.34765625 40.671875 C18.31043457 39.65802734 18.27321289 38.64417969 18.23486328 37.59960938 C18.12411118 34.47492348 18.11181481 31.36083473 18.11328125 28.234375 C18.08381743 26.22907495 18.04885914 24.22384641 18.0078125 22.21875 C18.00113556 21.29574097 17.99445862 20.37273193 17.98757935 19.42175293 C17.73430242 13.65202316 16.5362834 10.49742116 12.52120972 6.30627441 C8.83335572 3.13948599 4.69311783 2.65485365 0 2 C0 1.34 0 0.68 0 0 Z " fill="#D4A154" transform="translate(179,115)"/>
<path d="M0 0 C12.21 0 24.42 0 37 0 C37 0.66 37 1.32 37 2 C36.27554688 2.09796875 35.55109375 2.1959375 34.8046875 2.296875 C24.92533376 3.82488171 19.67002382 7.85033238 13 15 C11.97700806 16.01820328 11.97700806 16.01820328 10.93334961 17.05697632 C4.39162163 24.18278715 3.819976 30.03232511 3.9375 39.4765625 C3.93209602 40.85559173 3.92431947 42.23461348 3.91430664 43.61361694 C3.90258805 46.4869732 3.91940081 49.35832442 3.95703125 52.23144531 C4.00270988 55.89542234 3.97628131 59.55472322 3.92845154 63.21853065 C3.89940467 66.06033977 3.90880195 68.90105707 3.92947388 71.74290085 C3.93732151 73.74355912 3.91324498 75.74426176 3.88842773 77.74478149 C4.01789563 84.0516362 4.26739853 88.05304372 8.84765625 92.63818359 C10.22458639 93.76760521 11.60853071 94.88854014 13 96 C14.19401495 97.30889923 15.36488508 98.63970481 16.5 100 C18.89676588 102.78896393 21.37959391 105.41990785 24 108 C26.55869259 110.51955389 28.98170611 113.08118782 31.3125 115.8125 C38.72986671 124.37618702 46.40287186 131.92334949 56 138 C56.77730469 138.52207031 57.55460938 139.04414063 58.35546875 139.58203125 C68.71592174 146.25801646 79.6836027 149.75186745 92 150 C91.67 150.99 91.34 151.98 91 153 C73.64360508 156.21805498 57.70736983 152.69817233 43 143 C39.52790117 140.48259501 36.24880902 137.79801734 33 135 C32.22269531 134.34515625 31.44539063 133.6903125 30.64453125 133.015625 C23.9869754 127.23777881 18.05552161 120.83940122 12.1015625 114.35546875 C9.79253064 111.84114322 7.44144873 109.38732795 5 107 C4.9708456 110.39581516 4.95314932 113.79159786 4.9375 117.1875 C4.92493164 118.62706055 4.92493164 118.62706055 4.91210938 120.09570312 C4.90727539 121.49272461 4.90727539 121.49272461 4.90234375 122.91796875 C4.89448853 124.19837036 4.89448853 124.19837036 4.88647461 125.50463867 C4.9569752 128.44071947 4.9569752 128.44071947 6 133 C10.95 133 15.9 133 21 133 C21.95662762 139.69639333 21.79096503 143.88131475 21 151 C-11.67 151 -44.34 151 -78 151 C-78 145.06 -78 139.12 -78 133 C-56.88 132.67 -35.76 132.34 -14 132 C-11.85190466 125.55571397 -12.36607535 118.2853628 -12.21044922 111.54345703 C-12.15398039 109.6148046 -12.07238391 107.68670629 -11.96435547 105.76025391 C-11.04949877 93.63324041 -11.04949877 93.63324041 -15.81103516 82.90942383 C-18.47709644 80.0687412 -21.37589182 77.61181773 -24.46084595 75.23994446 C-26.60033557 73.5163689 -28.35292851 71.52923148 -30.125 69.4375 C-30.62257812 68.85871094 -31.12015625 68.27992188 -31.6328125 67.68359375 C-33.14117787 65.82614954 -34.57728546 63.92361108 -36 62 C-30.28250262 54.66693723 -24.51619551 47.38199411 -18.625 40.1875 C-13.41146061 33.81426675 -8.36458012 27.32806031 -3.40087891 20.75854492 C-2.89733887 20.09314697 -2.39379883 19.42774902 -1.875 18.7421875 C-1.39506592 18.10780762 -0.91513184 17.47342773 -0.4206543 16.81982422 C0.95410108 15.05879542 2.39027454 13.37346981 3.85546875 11.6875 C6.23870574 9.19294496 6.23870574 9.19294496 6.3125 6.125 C6.209375 5.42375 6.10625 4.7225 6 4 C4.02 3.34 2.04 2.68 0 2 C0 1.34 0 0.68 0 0 Z " fill="#A87220" transform="translate(209,140)"/>
<path d="M0 0 C2.2924236 4.36573521 2.31330659 7.06542128 2 12 C0 15 0 15 -2.8203125 16.33203125 C-13.91422443 22.1515649 -21.36407672 38.94578997 -25.125 50.4375 C-26.45881479 55.56755687 -27.40166613 60.73466197 -28 66 C-31.3 66 -34.6 66 -38 66 C-38.65364477 53.58074942 -35.09922263 44.61591246 -29 34 C-29.56920166 34.176521 -30.13840332 34.35304199 -30.72485352 34.53491211 C-33.33575491 35.34122379 -35.94907432 36.13940984 -38.5625 36.9375 C-39.45775391 37.21529297 -40.35300781 37.49308594 -41.27539062 37.77929688 C-49.60750186 40.31250286 -57.26055113 41.14827972 -65.9375 41.0625 C-66.81212891 41.05798828 -67.68675781 41.05347656 -68.58789062 41.04882812 C-70.72529047 41.03714834 -72.86265463 41.01921689 -75 41 C-75.83848804 39.54462432 -76.67063934 38.08559627 -77.5 36.625 C-78.19609375 35.40683594 -78.19609375 35.40683594 -78.90625 34.1640625 C-80 32 -80 32 -80 30 C-78.62618164 30.0314209 -78.62618164 30.0314209 -77.22460938 30.06347656 C-73.74289385 30.13269033 -70.2619353 30.18229214 -66.77978516 30.21972656 C-65.28845502 30.23953005 -63.79719906 30.26658066 -62.30615234 30.30175781 C-44.56750857 30.70899204 -27.91535783 27.0823194 -13 17 C-48.53237287 16.63599618 -84.02590632 17.35450515 -119.54598618 18.21706963 C-138.87123067 18.68508684 -158.19862045 19.11686392 -177.52970695 19.23117065 C-179.34876536 19.24363652 -181.16779704 19.26108277 -182.98675728 19.28372192 C-185.48084829 19.31317497 -187.97426242 19.32343898 -190.46850586 19.328125 C-191.57688844 19.34657722 -191.57688844 19.34657722 -192.70766258 19.36540222 C-194.74620056 19.35644531 -194.74620056 19.35644531 -198 19 C-200.16721782 15.74917327 -200.27221018 14.70767847 -200.25 10.9375 C-200.25515625 10.05964844 -200.2603125 9.18179687 -200.265625 8.27734375 C-200 6 -200 6 -198 4 C-195.38746492 3.69394215 -192.87368286 3.52716207 -190.25 3.4375 C-189.38568359 3.40140625 -188.52136719 3.3653125 -187.63085938 3.328125 C-172.65263352 2.7423279 -157.6624144 2.41964128 -142.67731476 2.06371307 C-139.97551466 1.99941731 -137.27373628 1.93426444 -134.57196045 1.86895752 C-109.96654627 1.27625943 -85.3606691 0.76771105 -60.75073242 0.40625 C-58.66503249 0.37558851 -56.57934249 0.34430719 -54.49365234 0.31298828 C-36.32762352 0.04323434 -18.16781536 -0.0518708 0 0 Z " fill="#F7C144" transform="translate(283,297)"/>
<path d="M0 0 C32.67 0 65.34 0 99 0 C100 9 100 9 99 18 C66.33 18 33.66 18 0 18 C0 12.06 0 6.12 0 0 Z " fill="#A77120" transform="translate(131,273)"/>
<path d="M0 0 C0.9604422 -0.0025882 1.9208844 -0.00517639 2.91043091 -0.00784302 C5.6226179 -0.01364308 8.33468742 -0.0121519 11.046875 -0.0078125 C11.86484055 -0.00979141 12.68280609 -0.01177032 13.52555847 -0.0138092 C19.13465249 0.00965249 19.13465249 0.00965249 20.25 1.125 C21.76469448 1.35692865 23.28754562 1.53715238 24.8125 1.6875 C26.05193359 1.81318359 26.05193359 1.81318359 27.31640625 1.94140625 C27.95449219 2.00199219 28.59257812 2.06257813 29.25 2.125 C28.92 2.785 28.59 3.445 28.25 4.125 C25.60139573 4.71855614 22.95802678 4.86709269 20.25 5.125 C23.22 5.455 26.19 5.785 29.25 6.125 C29.25 6.785 29.25 7.445 29.25 8.125 C26.17382812 8.41796875 26.17382812 8.41796875 23.09765625 8.7109375 C22.48792969 8.84757812 21.87820312 8.98421875 21.25 9.125 C20.92 9.785 20.59 10.445 20.25 11.125 C23.22 11.125 26.19 11.125 29.25 11.125 C20.92034704 15.28982648 13.85649396 16.57989836 4.5625 16.63671875 C2.88161789 16.66391747 2.88161789 16.66391747 1.16677856 16.69166565 C-2.47211963 16.74652994 -6.11083537 16.78040008 -9.75 16.8125 C-12.26058909 16.84329776 -14.77116868 16.87487919 -17.28173828 16.90722656 C-23.57742589 16.98387922 -29.87313276 17.04068873 -36.16906738 17.09246826 C-40.60529763 17.13277013 -45.04120681 17.19034078 -49.47723389 17.24836731 C-53.30572624 17.29508318 -57.13420978 17.32756367 -60.96289062 17.35415649 C-62.73278849 17.36801426 -64.5026571 17.38636122 -66.27246094 17.40927124 C-68.70005408 17.43854686 -71.12694007 17.44870785 -73.5546875 17.453125 C-74.61778641 17.47156212 -74.61778641 17.47156212 -75.70236206 17.4903717 C-77.64794922 17.48144531 -77.64794922 17.48144531 -80.75 17.125 C-82.91721782 13.87417327 -83.02221018 12.83267847 -83 9.0625 C-83.00515625 8.18464844 -83.0103125 7.30679687 -83.015625 6.40234375 C-82.75 4.125 -82.75 4.125 -80.75 2.125 C-78.11695125 1.81985576 -75.58145252 1.65215726 -72.9375 1.5625 C-71.63824585 1.50944702 -71.63824585 1.50944702 -70.31274414 1.45532227 C-67.12551094 1.33231191 -63.93793041 1.22835381 -60.75 1.125 C-58.8309082 1.05732422 -58.8309082 1.05732422 -56.87304688 0.98828125 C-37.91651357 0.3240179 -18.96809925 0.02401151 0 0 Z " fill="#F8C145" transform="translate(165.75,298.875)"/>
<path d="M0 0 C12.87 0 25.74 0 39 0 C39 0.66 39 1.32 39 2 C37.948125 2.061875 36.89625 2.12375 35.8125 2.1875 C31.33662744 3.14137448 29.87717133 4.53046987 27 8 C25.85074934 10.29850132 25.86958209 11.59880359 25.85955811 14.15510559 C25.85384796 15.02570114 25.84813782 15.89629669 25.84225464 16.79327393 C25.84057785 18.22942047 25.84057785 18.22942047 25.83886719 19.69458008 C25.83390228 20.70121201 25.82893738 21.70784393 25.82382202 22.74497986 C25.80917611 26.08650386 25.80239417 29.42798038 25.796875 32.76953125 C25.79112533 35.08640037 25.78536758 37.40326947 25.77960205 39.72013855 C25.769085 44.58336611 25.76324701 49.44657711 25.75976562 54.30981445 C25.75428094 60.54437823 25.73025624 66.77872361 25.70179367 73.01321888 C25.68317814 77.80100648 25.67796225 82.58874138 25.67642975 87.37656212 C25.6734 89.67508831 25.66536068 91.9736135 25.65224457 94.27210426 C25.63520787 97.48731764 25.63705877 100.70199625 25.64355469 103.91723633 C25.6343399 104.86859467 25.62512512 105.819953 25.6156311 106.80014038 C25.64645211 111.66503907 25.7456982 115.10155924 29 119 C32.44450737 121.29633824 34.93812283 121.54016485 39 122 C39 122.66 39 123.32 39 124 C26.13 124 13.26 124 0 124 C0 123.34 0 122.68 0 122 C1.2375 121.7525 2.475 121.505 3.75 121.25 C7.52201816 120.3086645 9.59576943 119.17358435 12 116 C12.91700481 113.24898557 13.13099143 111.60507604 13.14717102 108.76933289 C13.15432632 107.90722198 13.16148163 107.04511108 13.16885376 106.15687561 C13.17154266 105.21396164 13.17423157 104.27104767 13.17700195 103.29956055 C13.18685875 101.80643341 13.18685875 101.80643341 13.19691467 100.28314209 C13.21664854 96.98433357 13.22830985 93.68557055 13.23828125 90.38671875 C13.24235678 89.26060495 13.2464323 88.13449116 13.25063133 86.9742527 C13.27149137 81.01514494 13.28579401 75.05606021 13.29516602 69.09692383 C13.30623675 62.93976939 13.34064485 56.78297571 13.38033772 50.62594891 C13.4064704 45.89302392 13.41485484 41.16018539 13.41844749 36.4271946 C13.42332124 34.15739312 13.43495754 31.8875957 13.45348549 29.61786461 C13.47780743 26.44115887 13.4769244 23.2653932 13.4699707 20.08862305 C13.48918579 18.68336113 13.48918579 18.68336113 13.50878906 17.24971008 C13.46328895 11.5452037 12.78715859 8.35098581 9 4 C6.69523367 2.87866279 6.69523367 2.87866279 4.25 2.625 C3.45078125 2.49351562 2.6515625 2.36203125 1.828125 2.2265625 C1.22484375 2.15179688 0.6215625 2.07703125 0 2 C0 1.34 0 0.68 0 0 Z " fill="#A66F1D" transform="translate(142,140)"/>
<path d="M0 0 C2.97 0 5.94 0 9 0 C11.38596543 4.77193086 11.33179274 6.77426442 11 12 C9 15 9 15 6.1796875 16.33203125 C-4.91422443 22.1515649 -12.36407672 38.94578997 -16.125 50.4375 C-17.45881479 55.56755687 -18.40166613 60.73466197 -19 66 C-22.3 66 -25.6 66 -29 66 C-29.65364477 53.58074942 -26.09922263 44.61591246 -20 34 C-20.56920166 34.176521 -21.13840332 34.35304199 -21.72485352 34.53491211 C-24.33575491 35.34122379 -26.94907432 36.13940984 -29.5625 36.9375 C-30.90538086 37.35418945 -30.90538086 37.35418945 -32.27539062 37.77929688 C-40.60750186 40.31250286 -48.26055113 41.14827972 -56.9375 41.0625 C-57.81212891 41.05798828 -58.68675781 41.05347656 -59.58789062 41.04882812 C-61.72529047 41.03714834 -63.86265463 41.01921689 -66 41 C-66.83848804 39.54462432 -67.67063934 38.08559627 -68.5 36.625 C-69.19609375 35.40683594 -69.19609375 35.40683594 -69.90625 34.1640625 C-71 32 -71 32 -71 30 C-69.62618164 30.0314209 -69.62618164 30.0314209 -68.22460938 30.06347656 C-64.74289385 30.13269033 -61.2619353 30.18229214 -57.77978516 30.21972656 C-56.28845502 30.23953005 -54.79719906 30.26658066 -53.30615234 30.30175781 C-34.53021191 30.73280574 -14.50707744 26.83435363 0 14 C0.89214652 11.32356043 1.13540211 9.74615622 1.125 7 C1.12757813 6.319375 1.13015625 5.63875 1.1328125 4.9375 C1.06631126 2.78125219 1.06631126 2.78125219 0 0 Z " fill="#D72521" transform="translate(274,297)"/>
<path d="M0 0 C0.33 0 0.66 0 1 0 C1 20.13 1 40.26 1 61 C-5.68863636 55.42613636 -5.68863636 55.42613636 -8.375 52.1875 C-10.81018389 49.32857265 -13.32119161 46.63226539 -16 44 C-19.88266149 40.1780051 -23.47018764 36.14752953 -27 32 C-22.93583006 26.23416541 -18.38701727 21.07003308 -13.60546875 15.890625 C-10.19638824 12.10843672 -7.00191089 8.18452123 -3.8125 4.21484375 C-2 2 -2 2 0 0 Z " fill="#D4A154" transform="translate(212,166)"/>
<path d="M0 0 C0.76078857 0.77746582 1.52157715 1.55493164 2.30541992 2.35595703 C4.95509533 5.07779627 4.95509533 5.07779627 8.11328125 7.3046875 C12.5696537 10.75392387 16.41162772 13.97849706 17.53027344 19.72314453 C17.95089685 25.67680729 17.63952742 31.57588396 17.0769043 37.51147461 C16.89237073 40.44253692 16.89237073 40.44253692 18 45 C11.4 45 4.8 45 -2 45 C-1.67 43.68 -1.34 42.36 -1 41 C-0.89102621 39.5966353 -0.82508152 38.18948751 -0.79467773 36.78222656 C-0.77473251 35.96167786 -0.75478729 35.14112915 -0.73423767 34.29571533 C-0.71752518 33.41953552 -0.70081268 32.54335571 -0.68359375 31.640625 C-0.66281265 30.73624695 -0.64203156 29.8318689 -0.62062073 28.90008545 C-0.5553406 26.01679945 -0.49634048 23.1334239 -0.4375 20.25 C-0.39429429 18.29295956 -0.35067935 16.33592812 -0.30664062 14.37890625 C-0.19968128 9.5860288 -0.09835327 4.79306146 0 0 Z " fill="#D5A256" transform="translate(197,228)"/>
<path d="M0 0 C0.51240234 0.36834961 1.02480469 0.73669922 1.55273438 1.11621094 C0.99585938 1.36371094 0.43898437 1.61121094 -0.13476562 1.86621094 C-2.8469769 3.33227108 -5.08313927 5.14610564 -7.44726562 7.11621094 C-6.95226562 8.10621094 -6.95226562 8.10621094 -6.44726562 9.11621094 C-8.63300124 9.76799063 -10.82094792 10.41235768 -13.00976562 11.05371094 C-14.22792969 11.41335938 -15.44609375 11.77300781 -16.70117188 12.14355469 C-23.66316464 13.95120453 -30.24428935 14.2493012 -37.38476562 14.17871094 C-38.25939453 14.17419922 -39.13402344 14.1696875 -40.03515625 14.16503906 C-42.1725561 14.15335928 -44.30992025 14.13542783 -46.44726562 14.11621094 C-47.28575367 12.66083526 -48.11790497 11.20180721 -48.94726562 9.74121094 C-49.41132813 8.92910156 -49.87539062 8.11699219 -50.35351562 7.28027344 C-51.44726562 5.11621094 -51.44726562 5.11621094 -51.44726562 3.11621094 C-50.07344727 3.14763184 -50.07344727 3.14763184 -48.671875 3.1796875 C-45.19015948 3.24890127 -41.70920093 3.29850308 -38.22705078 3.3359375 C-36.73572065 3.35574098 -35.24446468 3.3827916 -33.75341797 3.41796875 C-24.58325608 3.62849239 -16.40506454 3.09478317 -7.59777832 0.35064697 C-2.9210193 -1.05487728 -2.9210193 -1.05487728 0 0 Z " fill="#D51A17" transform="translate(254.447265625,323.8837890625)"/>
<path d="M0 0 C14.19642857 -0.66964286 14.19642857 -0.66964286 17.875 1.9375 C20.35997402 5.51878608 20.75382417 7.56763744 20.46875 11.84375 C19.77989736 15.01247216 18.33200445 16.80517228 16 19 C12.93466836 20.53266582 9.73245728 20.10276471 6.375 20.0625 C5.66859375 20.05798828 4.9621875 20.05347656 4.234375 20.04882812 C2.48954725 20.03703875 0.744763 20.01910324 -1 20 C-0.34 19.67 0.32 19.34 1 19 C0.67 12.73 0.34 6.46 0 0 Z " fill="#FDFCFA" transform="translate(115,379)"/>
<path d="M0 0 C1.58294782 -0.05437607 3.16644256 -0.09296271 4.75 -0.125 C5.63171875 -0.14820313 6.5134375 -0.17140625 7.421875 -0.1953125 C10.17606888 0.01333855 11.73321757 0.43265269 14 2 C15 5.3125 15 5.3125 15 9 C13.0625 11.9375 13.0625 11.9375 11 14 C11.68459318 15.1601734 12.398972 16.30279586 13.125 17.4375 C13.51945312 18.07558594 13.91390625 18.71367187 14.3203125 19.37109375 C16.34311579 21.64166448 16.34311579 21.64166448 22 22 C24.64 16.39 27.28 10.78 30 5 C30.99 5 31.98 5 33 5 C35.64 11.27 38.28 17.54 41 24 C39.68 24 38.36 24 37 24 C36.505 20.535 36.505 20.535 36 17 C33.03 17.33 30.06 17.66 27 18 C26.67 19.98 26.34 21.96 26 24 C17.03010699 24.78377706 17.03010699 24.78377706 13.125 21.8125 C12.42375 20.884375 11.7225 19.95625 11 19 C8.42640462 15.4782368 8.42640462 15.4782368 5 13 C5 16.63 5 20.26 5 24 C3.68 23.67 2.36 23.34 1 23 C1.00785522 22.06148193 1.00785522 22.06148193 1.01586914 21.10400391 C1.03661618 18.27767943 1.04965286 15.45137095 1.0625 12.625 C1.07087891 11.64015625 1.07925781 10.6553125 1.08789062 9.640625 C1.09111328 8.69960938 1.09433594 7.75859375 1.09765625 6.7890625 C1.10289307 5.91975098 1.10812988 5.05043945 1.11352539 4.15478516 C1.14122351 1.94950006 1.14122351 1.94950006 0 0 Z " fill="#B3853E" transform="translate(69,375)"/>
<path d="M0 0 C2.97 0 5.94 0 9 0 C11.38596543 4.77193086 11.33179274 6.77426442 11 12 C8.99861382 15.00207927 8.27070739 15.62761056 5.1875 17.125 C4.47464844 17.47175781 3.76179688 17.81851562 3.02734375 18.17578125 C1 19 1 19 -1.75 19.3125 C-4.57528785 20.1757824 -4.87276563 21.05425196 -6.3125 23.5625 C-6.869375 24.696875 -7.42625 25.83125 -8 27 C-9.32 27 -10.64 27 -12 27 C-12.2475 27.61875 -12.495 28.2375 -12.75 28.875 C-14.20628639 31.35068687 -15.37812506 31.95125002 -18 33 C-18 33.66 -18 34.32 -18 35 C-18.99 34.67 -19.98 34.34 -21 34 C-23.3406065 34.27769908 -25.67624308 34.60539977 -28 35 C-22.74298902 28.18535614 -18.01132482 24.20553525 -10.171875 20.59570312 C-6.34933392 18.78830598 -3.10646222 16.88375629 0 14 C0.89214652 11.32356043 1.13540211 9.74615622 1.125 7 C1.12757813 6.319375 1.13015625 5.63875 1.1328125 4.9375 C1.06631126 2.78125219 1.06631126 2.78125219 0 0 Z " fill="#D11A13" transform="translate(274,297)"/>
<path d="M0 0 C2.14576637 -0.02685938 4.29162645 -0.04633088 6.4375 -0.0625 C7.63246094 -0.07410156 8.82742187 -0.08570313 10.05859375 -0.09765625 C13 0 13 0 14 1 C15.51469448 1.23192865 17.03754562 1.41215238 18.5625 1.5625 C19.38878906 1.64628906 20.21507812 1.73007812 21.06640625 1.81640625 C21.70449219 1.87699219 22.34257812 1.93757813 23 2 C22.67 2.66 22.34 3.32 22 4 C19.35139573 4.59355614 16.70802678 4.74209269 14 5 C16.97 5.33 19.94 5.66 23 6 C23 6.66 23 7.32 23 8 C19.92382812 8.29296875 19.92382812 8.29296875 16.84765625 8.5859375 C16.23792969 8.72257812 15.62820312 8.85921875 15 9 C14.67 9.66 14.34 10.32 14 11 C16.97 11 19.94 11 23 11 C15.37273149 14.81363425 9.43560353 15.24569719 1 15 C1.01160156 14.16855469 1.02320313 13.33710938 1.03515625 12.48046875 C1.04417969 11.39378906 1.05320313 10.30710937 1.0625 9.1875 C1.07410156 8.10855469 1.08570313 7.02960938 1.09765625 5.91796875 C1.13624766 2.93487831 1.13624766 2.93487831 0 0 Z " fill="#F6AE45" transform="translate(172,299)"/>
<path d="M0 0 C0.66 0 1.32 0 2 0 C2 7.92 2 15.84 2 24 C-1.90775329 22.04612336 -3.47622339 20.61107271 -6.25 17.375 C-6.95640625 16.55773437 -7.6628125 15.74046875 -8.390625 14.8984375 C-8.92171875 14.27195313 -9.4528125 13.64546875 -10 13 C-8.0095043 10.32610077 -6.00713735 7.66142477 -4 5 C-3.2575 4.01 -2.515 3.02 -1.75 2 C-1.1725 1.34 -0.595 0.68 0 0 Z " fill="#FCFBF9" transform="translate(195,185)"/>
<path d="M0 0 C1.62418745 -0.08090971 3.24951745 -0.13914995 4.875 -0.1875 C5.77992187 -0.22230469 6.68484375 -0.25710938 7.6171875 -0.29296875 C8.79667969 -0.14794922 8.79667969 -0.14794922 10 0 C12.44897847 3.67346771 12.31537716 5.66356399 12 10 C10 12 10 12 6 13 C5.67 16.63 5.34 20.26 5 24 C3.68 23.67 2.36 23.34 1 23 C1.00785522 22.06148193 1.00785522 22.06148193 1.01586914 21.10400391 C1.03661618 18.27767943 1.04965286 15.45137095 1.0625 12.625 C1.07087891 11.64015625 1.07925781 10.6553125 1.08789062 9.640625 C1.09111328 8.69960938 1.09433594 7.75859375 1.09765625 6.7890625 C1.10289307 5.91975098 1.10812988 5.05043945 1.11352539 4.15478516 C1.14122351 1.94950006 1.14122351 1.94950006 0 0 Z " fill="#DAC4A2" transform="translate(69,375)"/>
<path d="M0 0 C0.66 0 1.32 0 2 0 C2.48210937 0.99902344 2.96421875 1.99804688 3.4609375 3.02734375 C4.09864089 4.33088451 4.73667911 5.63426151 5.375 6.9375 C5.69210937 7.59685547 6.00921875 8.25621094 6.3359375 8.93554688 C7.95477369 12.61304807 7.95477369 12.61304807 11 15 C11.226875 14.195625 11.45375 13.39125 11.6875 12.5625 C13.33631588 8.08714261 15.60544412 4.11278682 18 0 C20.15278468 3.58497197 20.55139529 7.01039232 21.0625 11.125 C21.51412522 15.71626246 21.51412522 15.71626246 23 20 C21.35 20 19.7 20 18 20 C17.505 13.565 17.505 13.565 17 7 C14.69 11.29 12.38 15.58 10 20 C6.06369185 16.06369185 4.40940787 12.01417313 2 7 C1.34 11.29 0.68 15.58 0 20 C-0.99 19.67 -1.98 19.34 -3 19 C-2.01 12.73 -1.02 6.46 0 0 Z " fill="#B3843D" transform="translate(323,379)"/>
<path d="M0 0 C1.32 0 2.64 0 4 0 C4 2.97 4 5.94 4 9 C7.63 9 11.26 9 15 9 C15 6.03 15 3.06 15 0 C16.32 0.33 17.64 0.66 19 1 C19 7.27 19 13.54 19 20 C17.35 20 15.7 20 14 20 C14.495 15.545 14.495 15.545 15 11 C11.37 11 7.74 11 4 11 C4 13.97 4 16.94 4 20 C2.68 19.67 1.36 19.34 0 19 C0 12.73 0 6.46 0 0 Z " fill="#BE9659" transform="translate(140,379)"/>
<path d="M0 0 C0.66 0.33 1.32 0.66 2 1 C1.401875 1.53625 0.80375 2.0725 0.1875 2.625 C-2.21315594 5.23142645 -3.54018514 7.7884073 -5 11 C-6.32 11 -7.64 11 -9 11 C-9.2475 11.61875 -9.495 12.2375 -9.75 12.875 C-11.20628639 15.35068687 -12.37812506 15.95125002 -15 17 C-15 17.66 -15 18.32 -15 19 C-15.99 18.67 -16.98 18.34 -18 18 C-20.3406065 18.27769908 -22.67624308 18.60539977 -25 19 C-20.27174386 12.87077907 -15.89157653 8.55985067 -8.8125 5.3125 C-4.06743074 3.18046424 -4.06743074 3.18046424 0 0 Z " fill="#C1211C" transform="translate(271,313)"/>
<path d="M0 0 C2.36020967 2.1485844 3.71551468 4.11743365 5.04296875 7.01171875 C5.39423828 7.76904297 5.74550781 8.52636719 6.10742188 9.30664062 C6.46384766 10.09232422 6.82027344 10.87800781 7.1875 11.6875 C7.55552734 12.48478516 7.92355469 13.28207031 8.30273438 14.10351562 C9.2077297 16.06629769 10.10465652 18.03279639 11 20 C9.35 20 7.7 20 6 20 C5.67 17.69 5.34 15.38 5 13 C2.03 13 -0.94 13 -4 13 C-4.33 15.31 -4.66 17.62 -5 20 C-6.65 20 -8.3 20 -10 20 C-9.34 19.67 -8.68 19.34 -8 19 C-7.29804504 17.01211075 -6.63863218 15.00912752 -6 13 C-4.98688929 10.69556683 -3.94461926 8.40375409 -2.875 6.125 C-2.33617187 4.97257812 -1.79734375 3.82015625 -1.2421875 2.6328125 C-0.62730469 1.32957031 -0.62730469 1.32957031 0 0 Z " fill="#B08037" transform="translate(298,379)"/>
<path d="M0 0 C2.57828164 2.57828164 3.59906459 3.86353427 5.04296875 7.01171875 C5.39423828 7.76904297 5.74550781 8.52636719 6.10742188 9.30664062 C6.46384766 10.09232422 6.82027344 10.87800781 7.1875 11.6875 C7.55552734 12.48478516 7.92355469 13.28207031 8.30273438 14.10351562 C9.2077297 16.06629769 10.10465652 18.03279639 11 20 C9.35 20 7.7 20 6 20 C5.67 17.69 5.34 15.38 5 13 C2.03 13 -0.94 13 -4 13 C-4.33 15.31 -4.66 17.62 -5 20 C-6.32 19.67 -7.64 19.34 -9 19 C-6.03 12.73 -3.06 6.46 0 0 Z " fill="#B07F36" transform="translate(358,379)"/>
<path d="M0 0 C3.14823068 3.68100818 4.82051175 7.83782734 6.6875 12.25 C7.00783203 12.99507813 7.32816406 13.74015625 7.65820312 14.5078125 C8.44359663 16.33648991 9.22245338 18.16797236 10 20 C8.35 20 6.7 20 5 20 C4.67 18.02 4.34 16.04 4 14 C1.36 14 -1.28 14 -4 14 C-4.66 15.98 -5.32 17.96 -6 20 C-7.32 19.67 -8.64 19.34 -10 19 C-8.71078784 16.39459218 -7.41874404 13.79065627 -6.125 11.1875 C-5.76019531 10.44951172 -5.39539063 9.71152344 -5.01953125 8.95117188 C-4.66503906 8.23896484 -4.31054688 7.52675781 -3.9453125 6.79296875 C-3.62062988 6.1383667 -3.29594727 5.48376465 -2.96142578 4.80932617 C-2 3 -2 3 0 0 Z " fill="#B2833B" transform="translate(173,379)"/>
<path d="M0 0 C5.38706891 4.61748764 10.70742069 9.27739077 16 14 C16 9.38 16 4.76 16 0 C17.32 0.33 18.64 0.66 20 1 C19.67 7.27 19.34 13.54 19 20 C12.67243034 15.51317788 7.40236756 10.57119154 2 5 C2 9.95 2 14.9 2 20 C1.01 19.67 0.02 19.34 -1 19 C-0.67 12.73 -0.34 6.46 0 0 Z " fill="#B48641" transform="translate(265,379)"/>
<path d="M0 0 C0.99 0.33 1.98 0.66 3 1 C3.19658808 2.41543415 3.38187546 3.83244031 3.5625 5.25 C3.66691406 6.03890625 3.77132812 6.8278125 3.87890625 7.640625 C4.00027349 10.00532874 3.69633257 11.7511037 3 14 C4.65 13.67 6.3 13.34 8 13 C8 8.71 8 4.42 8 0 C8.66 0 9.32 0 10 0 C10.66 2.64 11.32 5.28 12 8 C12.33 7.34 12.66 6.68 13 6 C16.3 6 19.6 6 23 6 C19.71299843 7.64350079 17.52069985 8.41321669 14 9 C16.97 9.33 19.94 9.66 23 10 C23 10.66 23 11.32 23 12 C19.7 12.33 16.4 12.66 13 13 C13 13.66 13 14.32 13 15 C8.71 15 4.42 15 0 15 C0.33 14.01 0.66 13.02 1 12 C1.09225211 10.50225982 1.1300019 9.00057026 1.125 7.5 C1.12757812 6.7265625 1.13015625 5.953125 1.1328125 5.15625 C1.08145813 2.81552983 1.08145813 2.81552983 0 0 Z " fill="#F09C49" transform="translate(105,301)"/>
<path d="M0 0 C10.472 -0.3696 10.472 -0.3696 12.875 1.3125 C14 3 14 3 13.6875 6.1875 C13.460625 7.115625 13.23375 8.04375 13 9 C12.01 9.33 11.02 9.66 10 10 C12.06007659 13.60513403 14.3513141 16.80331012 17 20 C13.75480334 19.69593558 12.38099448 19.43719323 10.19921875 16.93359375 C9.70035156 16.10988281 9.20148438 15.28617187 8.6875 14.4375 C8.17574219 13.61121094 7.66398437 12.78492188 7.13671875 11.93359375 C6.76160156 11.29550781 6.38648438 10.65742188 6 10 C7.32 9.34 8.64 8.68 10 8 C10 6.35 10 4.7 10 3 C7.69 2.34 5.38 1.68 3 1 C3.33 7.27 3.66 13.54 4 20 C2.68 19.67 1.36 19.34 0 19 C0 12.73 0 6.46 0 0 Z " fill="#AB782A" transform="translate(373,379)"/>
<path d="M0 0 C14.19642857 -0.66964286 14.19642857 -0.66964286 17.875 1.9375 C20.35997402 5.51878608 20.75382417 7.56763744 20.46875 11.84375 C19.77989736 15.01247216 18.33200445 16.80517228 16 19 C12.93466836 20.53266582 9.73245728 20.10276471 6.375 20.0625 C5.66859375 20.05798828 4.9621875 20.05347656 4.234375 20.04882812 C2.48954725 20.03703875 0.744763 20.01910324 -1 20 C-0.34 19.67 0.32 19.34 1 19 C0.67 12.73 0.34 6.46 0 0 Z M3 1 C3 6.94 3 12.88 3 19 C11.40371521 19.67082039 11.40371521 19.67082039 16 17 C18.54160859 13.56882841 18.36988233 10.14268205 18 6 C16.23984869 2.8149643 15.50109084 2.16703028 12 1 C9.03 1 6.06 1 3 1 Z " fill="#AD7C30" transform="translate(115,379)"/>
<path d="M0 0 C8.3984375 -0.1953125 8.3984375 -0.1953125 11 0 C13 2 13 2 13.125 5.625 C13.08375 6.73875 13.0425 7.8525 13 9 C12.01 9.33 11.02 9.66 10 10 C12.8814281 15.46926127 12.8814281 15.46926127 17 20 C12.62346871 19.52379711 10.93461995 18.33100111 8.1875 14.9375 C7.28064453 13.83728516 7.28064453 13.83728516 6.35546875 12.71484375 C5.90816406 12.14894531 5.46085938 11.58304687 5 11 C5.639375 10.690625 6.27875 10.38125 6.9375 10.0625 C8.93610821 9.1654837 8.93610821 9.1654837 10 8 C10.04063832 6.33382885 10.042721 4.66611905 10 3 C7.69 2.34 5.38 1.68 3 1 C3.33 7.27 3.66 13.54 4 20 C2.35 20 0.7 20 -1 20 C-0.34 19.67 0.32 19.34 1 19 C0.67 12.73 0.34 6.46 0 0 Z " fill="#B07F36" transform="translate(217,379)"/>
<path d="M0 0 C2.875 -0.1875 2.875 -0.1875 6 0 C8.08133467 3.122002 8.2737822 3.93266989 8.25 7.5 C8.25515625 8.2734375 8.2603125 9.046875 8.265625 9.84375 C8 12 8 12 6 15 C2.875 15.1875 2.875 15.1875 0 15 C0.33 14.01 0.66 13.02 1 12 C1.23294845 5.91431338 1.23294845 5.91431338 0 0 Z " fill="#FDC748" transform="translate(283,297)"/>
<path d="M0 0 C5.94 0.33 11.88 0.66 18 1 C18 1.33 18 1.66 18 2 C15.69 2 13.38 2 11 2 C11.33 8.27 11.66 14.54 12 21 C10.02 21 8.04 21 6 21 C6.66 20.67 7.32 20.34 8 20 C8 14.06 8 8.12 8 2 C5.69 2 3.38 2 1 2 C0.67 2.66 0.34 3.32 0 4 C0 2.68 0 1.36 0 0 Z " fill="#BB9153" transform="translate(391,378)"/>
<path d="M0 0 C1.98 0 3.96 0 6 0 C8 2 8 2 8.4375 4.4375 C8 7 8 7 5.625 8.8125 C3 10 3 10 1 10 C1 12.64 1 15.28 1 18 C0.67 18 0.34 18 0 18 C0 12.06 0 6.12 0 0 Z " fill="#FAF7F3" transform="translate(376,380)"/>
<path d="M0 0 C-0.33 0.99 -0.66 1.98 -1 3 C-2.98 3 -4.96 3 -7 3 C-7 4.32 -7 5.64 -7 7 C-5.2416266 8.57707939 -5.2416266 8.57707939 -3 9.875 C0.90884116 12.61257493 0.90884116 12.61257493 1.75 16.1875 C1 19 1 19 -0.625 20.9375 C-3.76127543 22.34057059 -5.72450019 21.81887495 -9 21 C-9 20.01 -9 19.02 -9 18 C-8.67 18.33 -8.34 18.66 -8 19 C-6.00041636 19.04080783 -3.99954746 19.04254356 -2 19 C-1.41231617 16.71471005 -1.41231617 16.71471005 -2 14 C-3.53952253 12.70232452 -3.53952253 12.70232452 -5.4375 11.5625 C-8.89407614 9.3742643 -8.89407614 9.3742643 -9.9375 5.6875 C-9.958125 4.800625 -9.97875 3.91375 -10 3 C-6.68152292 -0.06320961 -4.44849969 -0.3033068 0 0 Z " fill="#BD9457" transform="translate(258,378)"/>
<path d="M0 0 C-0.86818359 0.39638672 -0.86818359 0.39638672 -1.75390625 0.80078125 C-4.08855732 2.04728191 -5.90821364 3.4957583 -7.9375 5.1875 C-11.60227817 8.01657174 -11.60227817 8.01657174 -15 7.875 C-15.99 7.441875 -15.99 7.441875 -17 7 C-17.33 6.01 -17.66 5.02 -18 4 C-15.53557005 1.0543009 -13.22882043 0.19735488 -9.5625 -0.8125 C-8.14130859 -1.22435547 -8.14130859 -1.22435547 -6.69140625 -1.64453125 C-3.67616265 -2.04277097 -2.50933686 -1.63136557 0 0 Z " fill="#DD453C" transform="translate(256,325)"/>
<path d="M0 0 C5.94 0.99 5.94 0.99 12 2 C11.67 2.66 11.34 3.32 11 4 C8.35139573 4.59355614 5.70802678 4.74209269 3 5 C5.97 5.33 8.94 5.66 12 6 C12 6.66 12 7.32 12 8 C8.92382812 8.29296875 8.92382812 8.29296875 5.84765625 8.5859375 C5.23792969 8.72257812 4.62820312 8.85921875 4 9 C3.67 9.66 3.34 10.32 3 11 C5.97 11 8.94 11 12 11 C8.32326162 12.83836919 4.95007553 13.93651813 1 15 C1 12.33333333 1 9.66666667 1 7 C0.67794257 4.66508361 0.34541851 2.33157492 0 0 Z " fill="#EB8F49" transform="translate(183,299)"/>
<path d="M0 0 C0.66 0 1.32 0 2 0 C3.86122475 3.12343464 4.1853192 5.0383026 3.6875 8.625 C3.58824219 9.40101563 3.48898438 10.17703125 3.38671875 10.9765625 C3 13 3 13 2 15 C1.01 14.67 0.02 14.34 -1 14 C-2.23887548 11.52224905 -2.16741669 9.76346293 -2.1875 7 C-2.20167969 6.113125 -2.21585937 5.22625 -2.23046875 4.3125 C-2 2 -2 2 0 0 Z " fill="#E8874C" transform="translate(85,301)"/>
<path d="M0 0 C1.32 0.33 2.64 0.66 4 1 C1.69 3.31 -0.62 5.62 -3 8 C-1.59928507 13.29158974 1.85487245 15.77478044 6 19 C4.296875 19.77734375 4.296875 19.77734375 2 20 C-0.359375 18.12890625 -0.359375 18.12890625 -2.75 15.5625 C-3.54921875 14.71816406 -4.3484375 13.87382812 -5.171875 13.00390625 C-5.77515625 12.34261719 -6.3784375 11.68132812 -7 11 C-5.38331641 7.59263997 -3.38560204 4.92428638 -1 2 C-0.67 1.34 -0.34 0.68 0 0 Z " fill="#B3853F" transform="translate(207,379)"/>
<path d="M0 0 C1.65 0.33 3.3 0.66 5 1 C5.75 4.1875 5.75 4.1875 6 8 C4.0625 10.9375 4.0625 10.9375 2 13 C2.99 14.65 3.98 16.3 5 18 C3.25 17.875 3.25 17.875 1 17 C-1.25 13.9375 -1.25 13.9375 -3 11 C-1.35 10.34 0.3 9.68 2 9 C2.16677282 5.58343976 2.16677282 5.58343976 2 2 C1.34 1.34 0.68 0.68 0 0 Z " fill="#B08038" transform="translate(78,376)"/>
<path d="M0 0 C6.27 0 12.54 0 19 0 C19 0.33 19 0.66 19 1 C15.37 1 11.74 1 8 1 C8 1.66 8 2.32 8 3 C12.455 3.99 12.455 3.99 17 5 C17 5.33 17 5.66 17 6 C12.73378599 6.19842856 9.89795604 5.68560261 6 4 C5.01 4 4.02 4 3 4 C2.67 4.99 2.34 5.98 2 7 C1.34 7 0.68 7 0 7 C0.66 5.02 1.32 3.04 2 1 C1.34 0.67 0.68 0.34 0 0 Z " fill="#E57365" transform="translate(211,328)"/>
<path d="M0 0 C2.625 0.375 2.625 0.375 5 1 C-1.04196731 9.92799293 -1.04196731 9.92799293 -6 11 C-6.99 11 -7.98 11 -9 11 C-9 10.34 -9 9.68 -9 9 C-8.1028125 8.938125 -8.1028125 8.938125 -7.1875 8.875 C-3.88991462 7.55596585 -3.40963515 5.13964193 -2 2 C-1.34 1.34 -0.68 0.68 0 0 Z " fill="#E15B50" transform="translate(271,315)"/>
<path d="M0 0 C3.3 0 6.6 0 10 0 C6.71299843 1.64350079 4.52069985 2.41321669 1 3 C3.97 3.33 6.94 3.66 10 4 C10 4.66 10 5.32 10 6 C8.93458984 6.07347656 8.93458984 6.07347656 7.84765625 6.1484375 C6.92855469 6.22320312 6.00945312 6.29796875 5.0625 6.375 C4.14597656 6.44460938 3.22945313 6.51421875 2.28515625 6.5859375 C1.53105469 6.72257812 0.77695313 6.85921875 0 7 C-0.33 7.66 -0.66 8.32 -1 9 C-1.125 2.25 -1.125 2.25 0 0 Z " fill="#EB8E49" transform="translate(118,307)"/>
<path d="M0 0 C0.66 0 1.32 0 2 0 C3.25664978 2.90600261 4 4.79604584 4 8 C1.69 8 -0.62 8 -3 8 C-2.01 5.36 -1.02 2.72 0 0 Z " fill="#F9F5F0" transform="translate(172,383)"/>
<path d="M0 0 C2.46278801 2.46278801 2.99771255 4.70676982 4 8 C1.69 8 -0.62 8 -3 8 C-2.45276317 4.62537285 -1.9451 2.91765 0 0 Z " fill="#F9F6F1" transform="translate(100,383)"/>
<path d="M0 0 C3 1 3 1 4.6875 3.9375 C6 7 6 7 6 9 C6.66 9 7.32 9 8 9 C7.34 10.32 6.68 11.64 6 13 C4.99491199 11.21118264 3.99607264 9.41885304 3 7.625 C2.1646875 6.12839844 2.1646875 6.12839844 1.3125 4.6015625 C0 2 0 2 0 0 Z " fill="#AD7B2F" transform="translate(326,386)"/>
<path d="M0 0 C2.15377564 2.62198774 3.40072174 4.64404172 4 8 C1.69 8 -0.62 8 -3 8 C-1.125 2.25 -1.125 2.25 0 0 Z " fill="#FBF8F4" transform="translate(358,383)"/>
<path d="M0 0 C2.15377564 2.62198774 3.40072174 4.64404172 4 8 C1.69 8 -0.62 8 -3 8 C-1.125 2.25 -1.125 2.25 0 0 Z " fill="#FBF8F4" transform="translate(298,383)"/>
<path d="M0 0 C1.9375 0.6875 1.9375 0.6875 4 2 C4.875 4.4375 4.875 4.4375 5 7 C4.01 8.485 4.01 8.485 3 10 C2.34 10 1.68 10 1 10 C0.67 10.66 0.34 11.32 0 12 C0.08378906 11.38511719 0.16757812 10.77023437 0.25390625 10.13671875 C0.35574219 9.32847656 0.45757812 8.52023437 0.5625 7.6875 C0.66691406 6.88699219 0.77132813 6.08648437 0.87890625 5.26171875 C1.14755178 2.83182884 1.14755178 2.83182884 0 0 Z " fill="#B68A47" transform="translate(382,379)"/>
<path d="M0 0 C2.50037734 2.17424117 3.43628586 3.73045798 4 7 C3.01 7.495 3.01 7.495 2 8 C1.34 7.34 0.68 6.68 0 6 C-0.66 7.32 -1.32 8.64 -2 10 C-2.66 10 -3.32 10 -4 10 C-2.8905928 6.51329166 -1.73662334 3.22515763 0 0 Z " fill="#B78C49" transform="translate(358,379)"/>
<path d="M0 0 C2.50037734 2.17424117 3.43628586 3.73045798 4 7 C3.01 7.495 3.01 7.495 2 8 C1.34 7.34 0.68 6.68 0 6 C-0.66 7.32 -1.32 8.64 -2 10 C-2.66 10 -3.32 10 -4 10 C-2.8905928 6.51329166 -1.73662334 3.22515763 0 0 Z " fill="#B78C49" transform="translate(298,379)"/>
<path d="M0 0 C2.60045875 2.3024119 3.84739183 4.49896677 5.1875 7.6875 C5.53167969 8.49574219 5.87585938 9.30398438 6.23046875 10.13671875 C6.48441406 10.75160156 6.73835937 11.36648438 7 12 C5.35 12 3.7 12 2 12 C1.33333333 8 0.66666667 4 0 0 Z " fill="#AC7A2D" transform="translate(176,387)"/>
<path d="M0 0 C1.32 1.32 2.64 2.64 4 4 C3.01 4.495 3.01 4.495 2 5 C2 9.95 2 14.9 2 20 C1.01 19.67 0.02 19.34 -1 19 C-0.67 12.73 -0.34 6.46 0 0 Z " fill="#A7711F" transform="translate(265,379)"/>
<path d="M0 0 C2.15377564 2.62198774 3.40072174 4.64404172 4 8 C3.01 8.495 3.01 8.495 2 9 C1.67 7.35 1.34 5.7 1 4 C0.34 4 -0.32 4 -1 4 C-1.33 5.65 -1.66 7.3 -2 9 C-2.66 9 -3.32 9 -4 9 C-2.94124926 5.59687262 -1.99097846 2.98646769 0 0 Z " fill="#B68946" transform="translate(173,379)"/>
<path d="M0 0 C0.33 0.66 0.66 1.32 1 2 C3.97 2 6.94 2 10 2 C10.33 2.66 10.66 3.32 11 4 C9.93458984 4.07347656 9.93458984 4.07347656 8.84765625 4.1484375 C7.92855469 4.22320312 7.00945312 4.29796875 6.0625 4.375 C5.14597656 4.44460938 4.22945313 4.51421875 3.28515625 4.5859375 C2.53105469 4.72257812 1.77695313 4.85921875 1 5 C0.67 5.66 0.34 6.32 0 7 C-0.38133299 5.0085944 -0.71325582 3.00720923 -1 1 C-0.67 0.67 -0.34 0.34 0 0 Z " fill="#EB9049" transform="translate(117,300)"/>
<path d="M0 0 C0.99 1.32 1.98 2.64 3 4 C2.67 4.99 2.34 5.98 2 7 C2.66 7.33 3.32 7.66 4 8 C3.34 10.31 2.68 12.62 2 15 C1.34 15 0.68 15 0 15 C0 10.05 0 5.1 0 0 Z " fill="#FCC143" transform="translate(182,299)"/>
<path d="M0 0 C1.32 0 2.64 0 4 0 C3.6875 2.875 3.6875 2.875 3 6 C2.01 6.66 1.02 7.32 0 8 C0 5.36 0 2.72 0 0 Z " fill="#47181B" transform="translate(256,298)"/>
<path d="M0 0 C0.99 0 1.98 0 3 0 C3.474375 0.495 3.94875 0.99 4.4375 1.5 C6.11993064 3.46168789 6.11993064 3.46168789 10 3 C10.66 2.34 11.32 1.68 12 1 C11.67 2.32 11.34 3.64 11 5 C4.64948454 5.36637589 4.64948454 5.36637589 1.5625 3.625 C0 2 0 2 0 0 Z " fill="#B98E4C" transform="translate(81,394)"/>
<path d="M0 0 C3 1 3 1 3.94921875 2.84765625 C4.19285156 3.57855469 4.43648438 4.30945313 4.6875 5.0625 C4.93886719 5.79597656 5.19023438 6.52945312 5.44921875 7.28515625 C5.63097656 7.85105469 5.81273438 8.41695313 6 9 C4.68 9 3.36 9 2 9 C1.34 6.03 0.68 3.06 0 0 Z " fill="#AD7A2E" transform="translate(104,390)"/>
<path d="M0 0 C1.485 0.99 1.485 0.99 3 2 C3.375 4.5 3.375 4.5 3 7 C2.01 7.66 1.02 8.32 0 9 C0 6.03 0 3.06 0 0 Z " fill="#FBF9F6" transform="translate(213,142)"/>
<path d="M0 0 C4.75 0.75 4.75 0.75 7 3 C7.125 5.625 7.125 5.625 7 8 C4.35247996 5.42215154 2.05567935 3.08351902 0 0 Z " fill="#AC7A2E" transform="translate(252,388)"/>
<path d="M0 0 C1.98 0.99 1.98 0.99 4 2 C4 3.98 4 5.96 4 8 C3.34 8 2.68 8 2 8 C1.34 5.36 0.68 2.72 0 0 Z " fill="#AF7D33" transform="translate(226,379)"/>
<path d="M0 0 C0.33 0.99 0.66 1.98 1 3 C0.01 4.485 0.01 4.485 -1 6 C-2.32 5.67 -3.64 5.34 -5 5 C-3.35 3.35 -1.7 1.7 0 0 Z " fill="#D31412" transform="translate(267,318)"/>
</svg>
